<svg width="166" height="40" viewBox="0 0 166 40" fill="none" xmlns="http://www.w3.org/2000/svg">
    <rect width="40" height="40" rx="10" fill="white"/>
    <path d="M24.4709 10.164C24.026 10.6089 23.2627 10.7442 22.8179 10.2993L20.8852 8.36666C20.3963 7.87778 19.6037 7.87778 19.1148 8.36666L17.1821 10.2993C16.7373 10.7442 15.974 10.6089 15.5291 10.164C14.0476 8.68248 11.6455 8.68248 10.164 10.164C8.68248 11.6455 8.68248 14.0476 10.164 15.5291C10.6089 15.974 10.7442 16.7373 10.2993 17.1821L8.36666 19.1148C7.87778 19.6037 7.87778 20.3963 8.36666 20.8852L10.2993 22.8179C10.7442 23.2627 11.5075 23.1274 11.9524 22.6825C13.4339 21.201 15.8359 21.201 17.3175 22.6825C18.799 24.1641 18.799 26.5661 17.3175 28.0476C16.8726 28.4925 16.7373 29.2558 17.1821 29.7007L19.1148 31.6333C19.6037 32.1222 20.3963 32.1222 20.8852 31.6333L22.8179 29.7007C23.2627 29.2558 24.026 29.3911 24.4709 29.836C25.9524 31.3175 28.3545 31.3175 29.836 29.836C31.3175 28.3545 31.3175 25.9524 29.836 24.4709C29.3911 24.026 29.2558 23.2627 29.7007 22.8179L31.6333 20.8852C32.1222 20.3963 32.1222 19.6037 31.6333 19.1148L29.7007 17.1821C29.2558 16.7373 29.3911 15.974 29.836 15.5291C31.3175 14.0476 31.3175 11.6455 29.836 10.164C28.3545 8.68248 25.9524 8.68248 24.4709 10.164Z"
          fill="#7075E9"/>
    <path d="M58.8457 21.6973H55.1445V19.7539H58.8457C59.4902 19.7539 60.0111 19.6497 60.4082 19.4414C60.8053 19.2331 61.0951 18.9466 61.2773 18.582C61.4661 18.2109 61.5605 17.7878 61.5605 17.3125C61.5605 16.8633 61.4661 16.4434 61.2773 16.0527C61.0951 15.6556 60.8053 15.3366 60.4082 15.0957C60.0111 14.8548 59.4902 14.7344 58.8457 14.7344H55.8965V27H53.4453V12.7812H58.8457C59.946 12.7812 60.8802 12.9766 61.6484 13.3672C62.4232 13.7513 63.0124 14.2852 63.416 14.9688C63.8197 15.6458 64.0215 16.4206 64.0215 17.293C64.0215 18.2109 63.8197 18.9987 63.416 19.6562C63.0124 20.3138 62.4232 20.8184 61.6484 21.1699C60.8802 21.5215 59.946 21.6973 58.8457 21.6973ZM72.3418 24.5098V16.4336H74.7051V27H72.4785L72.3418 24.5098ZM72.6738 22.3125L73.4648 22.293C73.4648 23.0026 73.3867 23.6569 73.2305 24.2559C73.0742 24.8483 72.8333 25.3659 72.5078 25.8086C72.1823 26.2448 71.7656 26.5866 71.2578 26.834C70.75 27.0749 70.1413 27.1953 69.4316 27.1953C68.9173 27.1953 68.4453 27.1204 68.0156 26.9707C67.5859 26.821 67.2148 26.5898 66.9023 26.2773C66.5964 25.9648 66.3587 25.5579 66.1895 25.0566C66.0202 24.5553 65.9355 23.9564 65.9355 23.2598V16.4336H68.2891V23.2793C68.2891 23.6634 68.3346 23.9857 68.4258 24.2461C68.5169 24.5 68.6406 24.7051 68.7969 24.8613C68.9531 25.0176 69.1354 25.1283 69.3438 25.1934C69.5521 25.2585 69.7734 25.291 70.0078 25.291C70.6784 25.291 71.2057 25.1608 71.5898 24.9004C71.9805 24.6335 72.2572 24.2754 72.4199 23.8262C72.5892 23.377 72.6738 22.8724 72.6738 22.3125ZM85.291 25.125V27H77.4199V25.125H85.291ZM85.0762 17.8984L78.2207 27H76.6973V25.4863L83.5137 16.4336H85.0762V17.8984ZM84.168 16.4336V18.3086H76.8145V16.4336H84.168ZM95.3496 25.125V27H87.4785V25.125H95.3496ZM95.1348 17.8984L88.2793 27H86.7559V25.4863L93.5723 16.4336H95.1348V17.8984ZM94.2266 16.4336V18.3086H86.873V16.4336H94.2266ZM99.7539 12V27H97.3906V12H99.7539ZM106.99 27.1953C106.209 27.1953 105.503 27.0684 104.871 26.8145C104.246 26.554 103.712 26.1927 103.27 25.7305C102.833 25.2682 102.498 24.7246 102.264 24.0996C102.029 23.4746 101.912 22.8008 101.912 22.0781V21.6875C101.912 20.8607 102.033 20.112 102.273 19.4414C102.514 18.7708 102.85 18.1979 103.279 17.7227C103.709 17.2409 104.217 16.873 104.803 16.6191C105.389 16.3652 106.023 16.2383 106.707 16.2383C107.462 16.2383 108.123 16.3652 108.689 16.6191C109.256 16.873 109.725 17.2311 110.096 17.6934C110.473 18.1491 110.753 18.6927 110.936 19.3242C111.124 19.9557 111.219 20.6523 111.219 21.4141V22.4199H103.055V20.7305H108.895V20.5449C108.882 20.1217 108.797 19.7246 108.641 19.3535C108.491 18.9824 108.26 18.6829 107.947 18.4551C107.635 18.2272 107.218 18.1133 106.697 18.1133C106.307 18.1133 105.958 18.1979 105.652 18.3672C105.353 18.5299 105.102 18.7676 104.9 19.0801C104.699 19.3926 104.542 19.7702 104.432 20.2129C104.327 20.6491 104.275 21.1406 104.275 21.6875V22.0781C104.275 22.5404 104.337 22.9701 104.461 23.3672C104.591 23.7578 104.78 24.0996 105.027 24.3926C105.275 24.6855 105.574 24.9167 105.926 25.0859C106.277 25.2487 106.678 25.3301 107.127 25.3301C107.693 25.3301 108.198 25.2161 108.641 24.9883C109.083 24.7604 109.467 24.4382 109.793 24.0215L111.033 25.2227C110.805 25.5547 110.509 25.8737 110.145 26.1797C109.78 26.4792 109.334 26.7233 108.807 26.9121C108.286 27.1009 107.68 27.1953 106.99 27.1953ZM125.75 23.3379C125.75 23.0449 125.704 22.7845 125.613 22.5566C125.529 22.3288 125.376 22.1204 125.154 21.9316C124.933 21.7428 124.62 21.5605 124.217 21.3848C123.82 21.2025 123.312 21.0169 122.693 20.8281C122.016 20.6198 121.391 20.3887 120.818 20.1348C120.252 19.8743 119.757 19.5749 119.334 19.2363C118.911 18.8913 118.582 18.4974 118.348 18.0547C118.113 17.6055 117.996 17.0879 117.996 16.502C117.996 15.9225 118.117 15.3952 118.357 14.9199C118.605 14.4447 118.953 14.0345 119.402 13.6895C119.858 13.3379 120.395 13.0677 121.014 12.8789C121.632 12.6836 122.316 12.5859 123.064 12.5859C124.119 12.5859 125.027 12.7812 125.789 13.1719C126.557 13.5625 127.146 14.0866 127.557 14.7441C127.973 15.4017 128.182 16.1276 128.182 16.9219H125.75C125.75 16.4531 125.649 16.0397 125.447 15.6816C125.252 15.3171 124.952 15.0306 124.549 14.8223C124.152 14.6139 123.647 14.5098 123.035 14.5098C122.456 14.5098 121.974 14.5977 121.59 14.7734C121.206 14.9492 120.919 15.1868 120.73 15.4863C120.542 15.7858 120.447 16.1243 120.447 16.502C120.447 16.7689 120.509 17.013 120.633 17.2344C120.757 17.4492 120.945 17.651 121.199 17.8398C121.453 18.0221 121.772 18.1947 122.156 18.3574C122.54 18.5202 122.993 18.6764 123.514 18.8262C124.301 19.0605 124.988 19.321 125.574 19.6074C126.16 19.8874 126.648 20.2064 127.039 20.5645C127.43 20.9225 127.723 21.3294 127.918 21.7852C128.113 22.2344 128.211 22.7454 128.211 23.3184C128.211 23.9173 128.09 24.4577 127.85 24.9395C127.609 25.4147 127.264 25.8216 126.814 26.1602C126.372 26.4922 125.838 26.7493 125.213 26.9316C124.594 27.1074 123.904 27.1953 123.143 27.1953C122.459 27.1953 121.785 27.1042 121.121 26.9219C120.464 26.7396 119.865 26.4629 119.324 26.0918C118.784 25.7142 118.354 25.2454 118.035 24.6855C117.716 24.1191 117.557 23.4583 117.557 22.7031H120.008C120.008 23.1654 120.086 23.5592 120.242 23.8848C120.405 24.2103 120.63 24.4772 120.916 24.6855C121.202 24.8874 121.535 25.0371 121.912 25.1348C122.296 25.2324 122.706 25.2812 123.143 25.2812C123.715 25.2812 124.194 25.1999 124.578 25.0371C124.969 24.8743 125.262 24.6465 125.457 24.3535C125.652 24.0605 125.75 23.722 125.75 23.3379ZM133.016 24.6562L135.457 16.4336H136.961L136.551 18.8945L134.09 27H132.742L133.016 24.6562ZM131.58 16.4336L133.484 24.6953L133.641 27H132.137L129.275 16.4336H131.58ZM139.246 24.5977L141.092 16.4336H143.387L140.535 27H139.031L139.246 24.5977ZM137.215 16.4336L139.627 24.5586L139.93 27H138.582L136.092 18.8848L135.682 16.4336H137.215ZM150.945 24.8809V19.8418C150.945 19.4642 150.877 19.1387 150.74 18.8652C150.604 18.5918 150.395 18.3802 150.115 18.2305C149.842 18.0807 149.497 18.0059 149.08 18.0059C148.696 18.0059 148.364 18.071 148.084 18.2012C147.804 18.3314 147.586 18.5072 147.43 18.7285C147.273 18.9499 147.195 19.2005 147.195 19.4805H144.852C144.852 19.0638 144.952 18.6602 145.154 18.2695C145.356 17.8789 145.649 17.5306 146.033 17.2246C146.417 16.9186 146.876 16.6777 147.41 16.502C147.944 16.3262 148.543 16.2383 149.207 16.2383C150.001 16.2383 150.704 16.3717 151.316 16.6387C151.935 16.9056 152.42 17.3092 152.771 17.8496C153.13 18.3835 153.309 19.054 153.309 19.8613V24.5586C153.309 25.0404 153.341 25.4733 153.406 25.8574C153.478 26.235 153.579 26.5638 153.709 26.8438V27H151.297C151.186 26.7461 151.098 26.4238 151.033 26.0332C150.975 25.6361 150.945 25.252 150.945 24.8809ZM151.287 20.5742L151.307 22.0293H149.617C149.181 22.0293 148.797 22.0716 148.465 22.1562C148.133 22.2344 147.856 22.3516 147.635 22.5078C147.413 22.6641 147.247 22.8529 147.137 23.0742C147.026 23.2956 146.971 23.5462 146.971 23.8262C146.971 24.1061 147.036 24.3633 147.166 24.5977C147.296 24.8255 147.485 25.0046 147.732 25.1348C147.986 25.265 148.292 25.3301 148.65 25.3301C149.132 25.3301 149.552 25.2324 149.91 25.0371C150.275 24.8353 150.561 24.5911 150.77 24.3047C150.978 24.0117 151.089 23.735 151.102 23.4746L151.863 24.5195C151.785 24.7865 151.652 25.0729 151.463 25.3789C151.274 25.6849 151.027 25.9779 150.721 26.2578C150.421 26.5312 150.06 26.7559 149.637 26.9316C149.22 27.1074 148.738 27.1953 148.191 27.1953C147.501 27.1953 146.886 27.0586 146.346 26.7852C145.805 26.5052 145.382 26.1309 145.076 25.6621C144.77 25.1868 144.617 24.6497 144.617 24.0508C144.617 23.4909 144.721 22.9961 144.93 22.5664C145.145 22.1302 145.457 21.7656 145.867 21.4727C146.284 21.1797 146.792 20.9583 147.391 20.8086C147.99 20.6523 148.673 20.5742 149.441 20.5742H151.287ZM158.133 18.4648V31.0625H155.779V16.4336H157.947L158.133 18.4648ZM165.018 21.6191V21.8242C165.018 22.5924 164.926 23.3053 164.744 23.9629C164.568 24.6139 164.305 25.1836 163.953 25.6719C163.608 26.1536 163.182 26.528 162.674 26.7949C162.166 27.0618 161.58 27.1953 160.916 27.1953C160.258 27.1953 159.682 27.0749 159.188 26.834C158.699 26.5866 158.286 26.2383 157.947 25.7891C157.609 25.3398 157.335 24.8125 157.127 24.207C156.925 23.5951 156.782 22.9245 156.697 22.1953V21.4043C156.782 20.6296 156.925 19.9264 157.127 19.2949C157.335 18.6634 157.609 18.1198 157.947 17.6641C158.286 17.2083 158.699 16.8568 159.188 16.6094C159.676 16.362 160.245 16.2383 160.896 16.2383C161.561 16.2383 162.15 16.3685 162.664 16.6289C163.178 16.8828 163.611 17.2474 163.963 17.7227C164.314 18.1914 164.578 18.7578 164.754 19.4219C164.93 20.0794 165.018 20.8118 165.018 21.6191ZM162.664 21.8242V21.6191C162.664 21.1309 162.618 20.6784 162.527 20.2617C162.436 19.8385 162.293 19.4674 162.098 19.1484C161.902 18.8294 161.652 18.582 161.346 18.4062C161.046 18.224 160.685 18.1328 160.262 18.1328C159.845 18.1328 159.487 18.2044 159.188 18.3477C158.888 18.4844 158.637 18.6764 158.436 18.9238C158.234 19.1712 158.077 19.4609 157.967 19.793C157.856 20.1185 157.778 20.4733 157.732 20.8574V22.752C157.811 23.2207 157.944 23.6504 158.133 24.041C158.322 24.4316 158.589 24.7441 158.934 24.9785C159.285 25.2064 159.734 25.3203 160.281 25.3203C160.704 25.3203 161.066 25.2292 161.365 25.0469C161.665 24.8646 161.909 24.6139 162.098 24.2949C162.293 23.9694 162.436 23.5951 162.527 23.1719C162.618 22.7487 162.664 22.2995 162.664 21.8242Z"
          fill="white"/>
</svg>
