<svg width="24" height="24" viewBox="0 0 24 24" fill="none" xmlns="http://www.w3.org/2000/svg">
    <path d="M12 2C5.33329 2 3.66663 4.77778 3.66663 4.77778C3.66663 4.77778 3.66663 12.5556 3.66663 15.8889C3.66663 19.2222 10.3333 22 10.3333 22V13.6667H9.22218C7.99488 13.6667 6.99996 12.6717 6.99996 11.4444V10.8218C6.99996 9.41946 8.28542 8.36194 9.67898 8.5185C10.4299 8.60286 11.2469 8.66667 12 8.66667"
          stroke="#7075E9" stroke-width="2.22222" stroke-linejoin="round"/>
    <path d="M12 2C18.6667 2 20.3334 4.77778 20.3334 4.77778C20.3334 4.77778 20.3334 12.5556 20.3334 15.8889C20.3334 19.2222 13.6667 22 13.6667 22V13.6667H14.7778C16.0051 13.6667 17 12.6717 17 11.4444V10.8218C17 9.41946 15.7146 8.36194 14.321 8.5185C13.5701 8.60286 12.7531 8.66667 12 8.66667"
          stroke="#7075E9" stroke-width="2.22222" stroke-linejoin="round"/>
</svg>
