<svg width="24" height="24" viewBox="0 0 24 24" fill="none" xmlns="http://www.w3.org/2000/svg">
    <g clip-path="url(#clip0_81_2057)">
        <path d="M18.9871 14.8284C18.854 15.13 18.8143 15.4646 18.8731 15.789C18.9319 16.1134 19.0866 16.4128 19.3171 16.6484L19.3771 16.7084C19.5631 16.8942 19.7106 17.1148 19.8112 17.3575C19.9119 17.6003 19.9637 17.8606 19.9637 18.1234C19.9637 18.3863 19.9119 18.6465 19.8112 18.8893C19.7106 19.1321 19.5631 19.3527 19.3771 19.5384C19.1914 19.7244 18.9708 19.8719 18.728 19.9725C18.4852 20.0732 18.2249 20.125 17.9621 20.125C17.6993 20.125 17.439 20.0732 17.1962 19.9725C16.9534 19.8719 16.7328 19.7244 16.5471 19.5384L16.4871 19.4784C16.2514 19.2479 15.9521 19.0932 15.6277 19.0344C15.3033 18.9756 14.9687 19.0153 14.6671 19.1484C14.3713 19.2752 14.1191 19.4857 13.9414 19.754C13.7637 20.0223 13.6684 20.3366 13.6671 20.6584V20.8284C13.6671 21.3589 13.4564 21.8676 13.0813 22.2426C12.7062 22.6177 12.1975 22.8284 11.6671 22.8284C11.1367 22.8284 10.628 22.6177 10.2529 22.2426C9.87781 21.8676 9.6671 21.3589 9.6671 20.8284V20.7384C9.65935 20.4074 9.55222 20.0864 9.35961 19.8171C9.167 19.5478 8.89783 19.3427 8.5871 19.2284C8.28548 19.0953 7.9509 19.0556 7.62651 19.1144C7.30211 19.1732 7.00278 19.3279 6.7671 19.5584L6.7071 19.6184C6.52135 19.8044 6.30077 19.9519 6.05798 20.0525C5.81518 20.1532 5.55493 20.205 5.2921 20.205C5.02927 20.205 4.76901 20.1532 4.52622 20.0525C4.28342 19.9519 4.06284 19.8044 3.8771 19.6184C3.69114 19.4327 3.54363 19.2121 3.44298 18.9693C3.34233 18.7265 3.29052 18.4663 3.29052 18.2034C3.29052 17.9406 3.34233 17.6803 3.44298 17.4375C3.54363 17.1948 3.69114 16.9742 3.8771 16.7884L3.9371 16.7284C4.16763 16.4928 4.32228 16.1934 4.3811 15.869C4.43992 15.5446 4.40021 15.21 4.2671 14.9084C4.14033 14.6127 3.92985 14.3604 3.66156 14.1827C3.39327 14.0051 3.07888 13.9097 2.7571 13.9084H2.5871C2.05666 13.9084 1.54796 13.6977 1.17288 13.3226C0.797811 12.9476 0.587097 12.4389 0.587097 11.9084C0.587097 11.378 0.797811 10.8693 1.17288 10.4942C1.54796 10.1191 2.05666 9.90843 2.5871 9.90843H2.6771C3.00809 9.90069 3.3291 9.79355 3.5984 9.60094C3.86769 9.40833 4.07281 9.13917 4.1871 8.82843C4.32021 8.52681 4.35992 8.19224 4.3011 7.86784C4.24228 7.54345 4.08763 7.24411 3.8571 7.00843L3.7971 6.94843C3.61114 6.76268 3.46363 6.54211 3.36298 6.29931C3.26233 6.05651 3.21052 5.79626 3.21052 5.53343C3.21052 5.2706 3.26233 5.01035 3.36298 4.76755C3.46363 4.52475 3.61114 4.30418 3.7971 4.11843C3.98284 3.93248 4.20342 3.78496 4.44622 3.68431C4.68901 3.58366 4.94927 3.53186 5.2121 3.53186C5.47493 3.53186 5.73518 3.58366 5.97798 3.68431C6.22077 3.78496 6.44135 3.93248 6.6271 4.11843L6.6871 4.17843C6.92278 4.40897 7.22211 4.56362 7.54651 4.62243C7.8709 4.68125 8.20548 4.64155 8.5071 4.50843H8.5871C8.88287 4.38167 9.13511 4.17119 9.31279 3.9029C9.49047 3.63461 9.58581 3.32022 9.5871 2.99843V2.82843C9.5871 2.298 9.79781 1.78929 10.1729 1.41422C10.548 1.03914 11.0567 0.82843 11.5871 0.82843C12.1175 0.82843 12.6262 1.03914 13.0013 1.41422C13.3764 1.78929 13.5871 2.298 13.5871 2.82843V2.91843C13.5884 3.24022 13.6837 3.55461 13.8614 3.8229C14.0391 4.09119 14.2913 4.30167 14.5871 4.42843C14.8887 4.56155 15.2233 4.60125 15.5477 4.54243C15.8721 4.48362 16.1714 4.32897 16.4071 4.09843L16.4671 4.03843C16.6528 3.85248 16.8734 3.70496 17.1162 3.60431C17.359 3.50366 17.6193 3.45186 17.8821 3.45186C18.1449 3.45186 18.4052 3.50366 18.648 3.60431C18.8908 3.70496 19.1114 3.85248 19.2971 4.03843C19.483 4.22418 19.6306 4.44475 19.7312 4.68755C19.8319 4.93035 19.8837 5.1906 19.8837 5.45343C19.8837 5.71626 19.8319 5.97651 19.7312 6.21931C19.6306 6.46211 19.483 6.68268 19.2971 6.86843L19.2371 6.92843C19.0066 7.16411 18.8519 7.46345 18.7931 7.78784C18.7343 8.11224 18.774 8.44681 18.9071 8.74843V8.82843C19.0339 9.1242 19.2443 9.37645 19.5126 9.55412C19.7809 9.7318 20.0953 9.82715 20.4171 9.82843H20.5871C21.1175 9.82843 21.6262 10.0391 22.0013 10.4142C22.3764 10.7893 22.5871 11.298 22.5871 11.8284C22.5871 12.3589 22.3764 12.8676 22.0013 13.2426C21.6262 13.6177 21.1175 13.8284 20.5871 13.8284H20.4971C20.1753 13.8297 19.8609 13.9251 19.5926 14.1027C19.3243 14.2804 19.1139 14.5327 18.9871 14.8284V14.8284Z"
              stroke="#7075E9" stroke-width="2" stroke-linecap="round" stroke-linejoin="round"/>
        <path d="M11.5871 14.8284C13.244 14.8284 14.5871 13.4853 14.5871 11.8284C14.5871 10.1716 13.244 8.82843 11.5871 8.82843C9.93024 8.82843 8.5871 10.1716 8.5871 11.8284C8.5871 13.4853 9.93024 14.8284 11.5871 14.8284Z"
              stroke="#7075E9" stroke-width="2" stroke-linecap="round" stroke-linejoin="round"/>
    </g>
    <defs>
        <clipPath id="clip0_81_2057">
            <rect width="24" height="24" fill="white"/>
        </clipPath>
    </defs>
</svg>
