<svg width="48" height="48" viewBox="0 0 48 48" fill="none" xmlns="http://www.w3.org/2000/svg">
    <rect width="48" height="48" rx="24" fill="#7075E9"/>
    <path d="M30.439 18.3003C29.3588 17.0777 27.9193 16.1485 26.2254 15.6947C21.6384 14.4656 16.9236 17.1877 15.6945 21.7747C15.2892 23.2874 15.3136 24.8141 15.6929 26.2251M30.439 18.3003L25.1127 19.8474M30.439 18.3003L29.1363 13.1365M17.5646 29.7041C18.6444 30.9246 20.0826 31.8522 21.7745 32.3055C26.3615 33.5346 31.0763 30.8125 32.3054 26.2255C32.7108 24.7128 32.6864 23.1861 32.307 21.7751M17.5646 29.7041L22.8873 28.1528M17.5646 29.7041L18.8636 34.8637"
          stroke="white" stroke-width="2" stroke-linecap="round" stroke-linejoin="round"/>
</svg>
